<?xml version="1.0" encoding="utf-8"?>
<!-- Generator: Adobe Illustrator 27.5.0, SVG Export Plug-In . SVG Version: 6.00 Build 0)  -->
<svg version="1.1" id="Layer_1" xmlns="http://www.w3.org/2000/svg" xmlns:xlink="http://www.w3.org/1999/xlink" x="0px" y="0px"
	 viewBox="0 0 512 512" style="enable-background:new 0 0 512 512;" xml:space="preserve">
<title>3905 - Automate</title>
<g id="_481338328">
	<path style="fill:#9ACC67;" d="M269.6,426h-27.3c-12.2,0-22-9.8-22.1-22v-12.5c-12.2-3.2-23.9-8.1-34.8-14.5l-8.8,8.9
		c-8.6,8.6-22.6,8.6-31.2,0l-19.3-19.3c-8.6-8.6-8.6-22.6,0-31.2l8.9-8.8c-6.4-10.9-11.2-22.6-14.4-34.8h-12.5
		c-12.2,0-22.1-9.9-22.1-22.1v-27.3c0-12.2,9.9-22.1,22.1-22.1h12.5c3.2-12.2,8.1-23.9,14.4-34.8l-8.8-8.8c-8.6-8.6-8.6-22.6,0-31.2
		l19.3-19.3c8.6-8.6,22.6-8.6,31.2,0l8.8,8.9c10.9-6.4,22.6-11.2,34.8-14.4v-12.5c0-12.2,9.9-22.1,22.1-22.1h27.3
		c12.2,0,22.1,9.9,22.1,22.1v12.5c12.2,3.2,23.9,8,34.8,14.4l8.9-8.8c8.6-8.6,22.6-8.6,31.2,0l19.3,19.3c8.6,8.6,8.6,22.6,0,31.2
		l-8.9,8.8c6.4,10.9,11.2,22.6,14.4,34.8H404c12.2,0.1,22,9.9,22,22.1v27.3c0,12.2-9.8,22-22,22.1h-12.5
		c-3.2,12.2-8.1,23.9-14.5,34.8l8.9,8.8c8.6,8.6,8.6,22.6,0,31.2L366.6,386c-8.6,8.6-22.6,8.6-31.2,0l-8.8-8.9
		c-10.9,6.4-22.6,11.2-34.8,14.4V404C291.7,416.2,281.8,426,269.6,426z M184.3,358.9c1.5,0,3,0.4,4.3,1.3
		c12.6,8.2,26.6,14,41.3,17.1c3.7,0.8,6.3,4,6.3,7.8V404c0,3.4,2.7,6.1,6.1,6.1h27.3c3.4,0,6.1-2.7,6.1-6.1v-18.9
		c0-3.8,2.6-7,6.3-7.8c14.7-3.1,28.7-8.9,41.3-17.1c3.2-2,7.3-1.6,10,1.1l13.3,13.3c2.4,2.4,6.2,2.4,8.6,0l0,0l19.3-19.3
		c2.4-2.4,2.4-6.2,0-8.6l0,0l-13.3-13.3c-2.7-2.7-3.1-6.8-1.1-10c8.2-12.6,14-26.6,17.1-41.3c0.8-3.7,4-6.3,7.8-6.3h19
		c3.4,0,6.1-2.7,6.1-6.1v-27.3c0-3.4-2.7-6.1-6.1-6.1h-18.9c-3.8,0-7-2.6-7.8-6.3c-3.1-14.7-8.9-28.7-17.1-41.3
		c-2-3.2-1.6-7.3,1.1-10l13.3-13.3c2.4-2.4,2.4-6.2,0-8.6l-19.3-19.3c-2.4-2.4-6.2-2.4-8.6,0l0,0l-13.3,13.3
		c-2.7,2.7-6.8,3.1-10,1.1c-12.6-8.2-26.6-14-41.3-17.1c-3.7-0.8-6.3-4.1-6.3-7.8v-18.8c0-3.4-2.7-6.1-6.1-6.1h-27.3
		c-3.4,0-6.1,2.7-6.1,6.1V127c0,3.8-2.6,7-6.3,7.8c-14.7,3.1-28.7,8.9-41.3,17.1c-3.2,2-7.3,1.6-10-1.1l-13.3-13.3
		c-2.4-2.4-6.2-2.4-8.6,0l-19.3,19.3c-2.4,2.4-2.4,6.2,0,8.6l0,0l13.3,13.3c2.7,2.7,3.1,6.8,1.1,10c-8.2,12.6-14,26.6-17.1,41.3
		c-0.8,3.7-4,6.3-7.8,6.3h-18.8c-3.4,0-6.1,2.7-6.1,6.1v27.3c0,3.4,2.7,6.1,6.1,6.1H127c3.8,0,7,2.6,7.8,6.3
		c3.1,14.7,8.9,28.7,17.1,41.3c2,3.2,1.6,7.3-1.1,10l-13.3,13.3c-2.4,2.4-2.4,6.2,0,8.6l19.3,19.3c2.4,2.4,6.2,2.4,8.6,0l0,0
		l13.3-13.3C180.2,359.8,182.2,358.9,184.3,358.9L184.3,358.9z"/>
</g>
<g id="_481338064">
	<path style="fill:#9ACC67;" d="M256,294.4c-4.4,0-8-3.6-8-8v-60.7c0-4.4,3.6-8,8-8s8,3.6,8,8v60.7C264,290.8,260.4,294.4,256,294.4
		z"/>
</g>
<g id="_481337704">
	<path style="fill:#9ACC67;" d="M256,349.5c-51.6,0-93.5-41.9-93.5-93.5s41.9-93.5,93.5-93.5s93.5,41.9,93.5,93.5l0,0
		C349.4,307.6,307.6,349.4,256,349.5z M256,178.5c-42.8,0-77.5,34.7-77.5,77.5s34.7,77.5,77.5,77.5s77.5-34.7,77.5-77.5
		C333.4,213.2,298.8,178.6,256,178.5L256,178.5z"/>
</g>
<g id="_481337944">
	<path style="fill:#9ACC67;" d="M302.4,280c-13.3,0-24-10.7-24-24c0-13.3,10.7-24,24-24c13.3,0,24,10.7,24,24
		C326.4,269.3,315.6,280,302.4,280z M302.4,248c-4.4,0-8,3.6-8,8s3.6,8,8,8s8-3.6,8-8S306.8,248,302.4,248z"/>
</g>
<g id="_481337992">
	<path style="fill:#9ACC67;" d="M209.6,280c-13.3,0-24-10.7-24-24c0-13.3,10.7-24,24-24c13.3,0,24,10.7,24,24
		C233.6,269.3,222.9,280,209.6,280z M209.6,248c-4.4,0-8,3.6-8,8s3.6,8,8,8c4.4,0,8-3.6,8-8S214,248,209.6,248z"/>
</g>
<g id="_481373824">
	<path style="fill:#9ACC67;" d="M286.4,264h-60.7c-4.4,0-8-3.6-8-8s3.6-8,8-8h60.7c4.4,0,8,3.6,8,8S290.8,264,286.4,264z"/>
</g>
<g id="_481373896">
	<path style="fill:#9ACC67;" d="M141.4,149.4c-2.1,0-4.2-0.8-5.7-2.3l-36.6-36.6c-3.1-3.1-3.1-8.2,0-11.3c3.1-3.1,8.2-3.1,11.3,0
		l36.6,36.6c3.1,3.1,3.1,8.2,0,11.3C145.6,148.6,143.5,149.4,141.4,149.4z"/>
</g>
<g id="_481374136">
	<path style="fill:#9ACC67;" d="M74.7,125.3c-27.9,0-50.5-22.6-50.5-50.5s22.6-50.5,50.5-50.5s50.5,22.6,50.5,50.5l0,0
		C125.2,102.6,102.6,125.2,74.7,125.3z M74.7,40.2c-19.1,0-34.5,15.5-34.5,34.5s15.5,34.5,34.5,34.5s34.5-15.5,34.5-34.5l0,0
		C109.2,55.6,93.8,40.2,74.7,40.2z"/>
</g>
<g id="_481374112">
	<path style="fill:#9ACC67;" d="M74.7,97.5c-12.6,0-22.8-10.2-22.8-22.8s10.2-22.8,22.8-22.8s22.8,10.2,22.8,22.8l0,0
		C97.5,87.3,87.3,97.5,74.7,97.5z M74.7,67.9c-3.8,0-6.8,3-6.8,6.8c0,3.8,3,6.8,6.8,6.8c3.8,0,6.8-3,6.8-6.8
		C81.5,71,78.5,67.9,74.7,67.9z"/>
</g>
<g id="_481373896-2">
	<path style="fill:#9ACC67;" d="M104.8,415.2c-4.4,0-8-3.6-8-8c0-2.1,0.8-4.2,2.3-5.7l36.6-36.6c3.1-3.1,8.2-3.1,11.3,0
		s3.1,8.2,0,11.3l0,0l-36.6,36.6C109,414.4,106.9,415.2,104.8,415.2z"/>
</g>
<g id="_481374136-2">
	<path style="fill:#9ACC67;" d="M74.7,487.8c-27.9,0-50.5-22.6-50.5-50.5c0-27.9,22.6-50.5,50.5-50.5s50.5,22.6,50.5,50.5
		C125.2,465.2,102.6,487.8,74.7,487.8z M74.7,402.8c-19.1,0-34.5,15.5-34.5,34.5c0,19.1,15.5,34.5,34.5,34.5s34.5-15.5,34.5-34.5
		C109.2,418.2,93.8,402.8,74.7,402.8z"/>
</g>
<g id="_481374112-2">
	<path style="fill:#9ACC67;" d="M74.7,460.1c-12.6,0-22.8-10.2-22.8-22.8c0-12.6,10.2-22.8,22.8-22.8s22.8,10.2,22.8,22.8l0,0
		C97.5,449.9,87.3,460.1,74.7,460.1z M74.7,430.5c-3.8,0-6.8,3-6.8,6.8c0,3.8,3,6.8,6.8,6.8c3.8,0,6.8-3,6.8-6.8l0,0
		C81.5,433.5,78.5,430.5,74.7,430.5z"/>
</g>
<g id="_481373896-3">
	<path style="fill:#9ACC67;" d="M407.2,415.2c-2.1,0-4.2-0.8-5.7-2.3l-36.6-36.6c-3.1-3.1-3.1-8.2,0-11.3c3.1-3.1,8.2-3.1,11.3,0
		l0,0l36.6,36.6c3.1,3.1,3.1,8.2,0,11.3C411.4,414.4,409.3,415.2,407.2,415.2z"/>
</g>
<g id="_481374136-3">
	<path style="fill:#9ACC67;" d="M437.3,487.8c-27.9,0-50.5-22.6-50.5-50.5c0-27.9,22.6-50.5,50.5-50.5c27.9,0,50.5,22.6,50.5,50.5
		C487.8,465.2,465.2,487.8,437.3,487.8z M437.3,402.8c-19.1,0-34.5,15.5-34.5,34.5c0,19.1,15.5,34.5,34.5,34.5
		c19.1,0,34.5-15.5,34.5-34.5C471.8,418.2,456.4,402.8,437.3,402.8z"/>
</g>
<g id="_481374112-3">
	<path style="fill:#9ACC67;" d="M437.3,460.1c-12.6,0-22.8-10.2-22.8-22.8c0-12.6,10.2-22.8,22.8-22.8c12.6,0,22.8,10.2,22.8,22.8
		l0,0C460.1,449.9,449.9,460.1,437.3,460.1z M437.3,430.5c-3.8,0-6.8,3-6.8,6.8c0,3.8,3,6.8,6.8,6.8c3.8,0,6.8-3,6.8-6.8l0,0
		C444.1,433.5,441,430.5,437.3,430.5z"/>
</g>
<g id="_481373896-4">
	<path style="fill:#9ACC67;" d="M370.6,149.4c-4.4,0-8-3.6-8-8c0-2.1,0.8-4.2,2.3-5.7l36.6-36.6c3.1-3.1,8.2-3.1,11.3,0
		c3.1,3.1,3.1,8.2,0,11.3L376.2,147C374.7,148.6,372.7,149.4,370.6,149.4z"/>
</g>
<g id="_481374136-4">
	<path style="fill:#9ACC67;" d="M437.3,125.3c-27.9,0-50.5-22.6-50.5-50.5s22.6-50.5,50.5-50.5c27.9,0,50.5,22.6,50.5,50.5
		C487.8,102.6,465.2,125.2,437.3,125.3z M437.3,40.2c-19.1,0-34.5,15.5-34.5,34.5s15.5,34.5,34.5,34.5c19.1,0,34.5-15.5,34.5-34.5
		C471.8,55.6,456.4,40.2,437.3,40.2z"/>
</g>
<g id="_481374112-4">
	<path style="fill:#9ACC67;" d="M437.3,97.5c-12.6,0-22.8-10.2-22.8-22.8s10.2-22.8,22.8-22.8c12.6,0,22.8,10.2,22.8,22.8l0,0
		C460.1,87.3,449.9,97.5,437.3,97.5z M437.3,67.9c-3.8,0-6.8,3-6.8,6.8c0,3.8,3,6.8,6.8,6.8c3.8,0,6.8-3,6.8-6.8l0,0
		C444.1,71,441,67.9,437.3,67.9z"/>
</g>
<g id="_481372744">
	<path style="fill:#9ACC67;" d="M206.7,39H147c-4.4,0-8-3.6-8-8s3.6-8,8-8h59.7c4.4,0,8,3.6,8,8S211.1,39,206.7,39L206.7,39z"/>
</g>
<g id="_481372312">
	<path style="fill:#9ACC67;" d="M237.7,70.2H147c-4.4,0-8-3.6-8-8s3.6-8,8-8h90.8c4.4,0,8,3.6,8,8S242.2,70.2,237.7,70.2L237.7,70.2
		z"/>
</g>
<g id="_481372192">
	<path style="fill:#9ACC67;" d="M365,39h-59.7c-4.4,0-8-3.6-8-8s3.6-8,8-8H365c4.4,0,8,3.6,8,8S369.4,39,365,39z"/>
</g>
<g id="_481372360">
	<path style="fill:#9ACC67;" d="M365,70.2h-90.7c-4.4,0-8-3.6-8-8s3.6-8,8-8H365c4.4,0,8,3.6,8,8S369.4,70.2,365,70.2z"/>
</g>
<g id="_481372456">
	<path style="fill:#9ACC67;" d="M206.7,489H147c-4.4,0-8-3.6-8-8s3.6-8,8-8h59.7c4.4,0,8,3.6,8,8S211.1,489,206.7,489L206.7,489z"/>
</g>
<g id="_481372696">
	<path style="fill:#9ACC67;" d="M237.7,457.8H147c-4.4,0-8-3.6-8-8c0-4.4,3.6-8,8-8h90.8c4.4,0,8,3.6,8,8
		C245.8,454.2,242.2,457.8,237.7,457.8L237.7,457.8z"/>
</g>
<g id="_481371640">
	<path style="fill:#9ACC67;" d="M365,489h-59.7c-4.4,0-8-3.6-8-8s3.6-8,8-8H365c4.4,0,8,3.6,8,8S369.4,489,365,489z"/>
</g>
<g id="_481371616">
	<path style="fill:#9ACC67;" d="M365,457.8h-90.7c-4.4,0-8-3.6-8-8c0-4.4,3.6-8,8-8H365c4.4,0,8,3.6,8,8
		C373,454.2,369.4,457.8,365,457.8z"/>
</g>
</svg>
