<?xml version="1.0" encoding="utf-8"?>
<!-- Generator: Adobe Illustrator 27.5.0, SVG Export Plug-In . SVG Version: 6.00 Build 0)  -->
<svg version="1.1" id="Layer_1" xmlns="http://www.w3.org/2000/svg" xmlns:xlink="http://www.w3.org/1999/xlink" x="0px" y="0px"
	 viewBox="0 0 4000 4000" style="enable-background:new 0 0 4000 4000;" xml:space="preserve">
<path style="fill:#FEFEFE;" d="M0,0h4000v4000H0V0z"/>
<path d="M287.383,1930.688c24.711-3.944,56.841,4,79.479,13.952c53.598,23.568,78.494,69.936,98.679,122.192
	c-14.364-7.168-27.694-16.448-41.836-24.072c-37.626-20.296-77.942-27.352-120.17-22.232
	c-59.967,8.408-102.337,42.632-141.333,86.52c-1.25-48.032-1.703-86.048,29.178-126.112
	C215.91,1949.112,248.426,1935.712,287.383,1930.688z"/>
<path d="M3758.408,2561.08c13.488,3.016,67.344,47.88,85.536,58.152c-44.064,44.344-84.88,95.248-124.064,143.92
	c-33.829,41.834-66.563,84.512-98.2,128.032c-31.637,43.514-62.133,87.816-91.488,132.904
	c-29.36,45.088-57.539,90.899-84.536,137.432c-27.003,46.539-52.79,93.739-77.36,141.6c-23.979,46.683-47.187,93.746-69.624,141.192
	c-9.2,19.896-40.704,101.024-51.664,113.544c-30.04-22.04-58.64-46.624-89.384-67.6c21.888-59.608,49.504-118.456,77.168-175.56
	c16.906-34.464,34.456-68.597,52.648-102.4c18.198-33.797,37.027-67.24,56.488-100.328c19.456-33.088,39.533-65.797,60.232-98.128
	c20.693-32.331,41.992-64.259,63.896-95.784c21.904-31.525,44.395-62.624,67.472-93.296c23.083-30.677,46.733-60.904,70.952-90.68
	c24.224-29.781,49-59.094,74.328-87.936C3706.141,2617.301,3732.008,2588.947,3758.408,2561.08z"/>
<path d="M3649.472,2483.304c12.352,3.608,66.28,48.432,84.984,58.904c-180.36,188.592-356.232,432.688-478.232,663.456
	c-24.672,46.672-49.984,93.992-71.128,142.352c-12.888,29.488-38.528,101.568-53.272,123.264
	c-30.432-18.464-58.624-41.368-89.824-58.376c19.096-47.216,34.432-95.12,55.616-141.688
	c32.848-72.216,71.256-141.44,111.008-210.016c24.144-41.656,47.904-83.784,73.984-124.264c26.619-40.8,54.259-80.893,82.92-120.28
	c28.661-39.387,58.307-78.019,88.936-115.896c30.635-37.877,62.213-74.949,94.736-111.216
	C3581.718,2553.277,3615.141,2517.864,3649.472,2483.304z"/>
<path d="M1131.184,1608.832c79.16-6.84,255.32,3.568,325.712,37.888c89.64,43.704,127.992,129.792,152.616,221.32
	c8.208,30.52,14.632,61.984,25.056,91.824l1.224,3.432c-10.613-13.349-21.957-26.045-34.032-38.088
	c-12.075-12.043-24.803-23.349-38.184-33.92c-17.544-13.808-42.904-28.104-56.512-45.504c-21.992-28.12-38.656-96.016-61.936-131.52
	c-0.376-0.584-0.768-1.144-1.16-1.72c12.2,40.624,22.6,83.576,39.352,122.496c-28.12-20.184-58.24-36.608-87.696-54.696
	c-16.92-42.504-44.608-86.304-78.248-117.288c21.64,34.64,36.192,70.28,52.792,107.344c-30.264-12.48-102.112-35.456-125.4-51.264
	c-23.672-16.056-40.928-39.296-65.576-55.016c15.376,19.84,33.256,38.368,49.416,57.688c-42.248-12.872-85.888-14.088-129.68-11.632
	c25.624,8.424,52.24,14.232,78.088,22.112c37.376,11.392,73.52,25.192,109.912,39.328c-25.872,10.08-50.36,20.344-74.104,34.992
	l-1.624,2.736c2.56-0.192,84.224-28.336,95.112-31.784c52.88,19.536,99.976,43.824,147.88,73.504
	c13.912,8.616,28.976,16.808,41.496,27.328c-61.872-18.392-128.64-17.992-188.864,6.28l-2.648-0.536l1.208,2.024l-2.496,0.544
	c12.376,1.36,26-3.04,38.464-4.408c15.424-1.68,32.16-2.192,47.664-1.576c24.56,0.968,49.464,4.008,73.664,8.192
	c60.496,10.464,92.416,27.552,134.264,72.776c20.848,22.536,49.136,55.528,53.504,87c2.232,16.048,0.192,33.904-0.456,50.104
	c-11.2,2.272-22.52,4.024-33.792,5.928c-0.416-30.208-5.496-69.264-25.056-93.56c-37.384-46.44-124.72-10.408-173.464-1.152
	c-28.416,5.392-57.68,8.352-86.552,5.248c-113.704-12.224-175.248-125.8-239.92-206.2c-52.792-65.616-108.632-114-194.848-123.184
	C978.688,1633.312,1034.456,1616.296,1131.184,1608.832z"/>
<path d="M889.76,914.768c12.912,9.072,23.592,26.248,34.904,37.76c9.829,10.053,20.091,19.645,30.784,28.776
	c10.693,9.131,21.773,17.763,33.24,25.896c11.467,8.139,23.275,15.744,35.424,22.816c12.155,7.072,24.6,13.587,37.336,19.544
	c159.024,73.56,333.8,35.824,469.352,172.736c11.445,11.653,22.051,24.029,31.816,37.128c9.76,13.093,18.589,26.789,26.488,41.088
	c12.88,23.24,24.576,48.84,30.336,74.904c10.184,46.024,4.392,126.152,4.2,175.648c-20.624-21.168-45.12-39.112-64.768-60.968
	c-28.784-32.008-43.176-112.736-52.368-155.352c-2.44,40.328,1.728,86.64,13.912,125.024c-27.416-22.152-57-41.528-85.76-61.872
	c-18.464-51.424-53.488-134.504-90.88-173.888c23.384,52.712,41.416,106.312,63.04,159.56
	c-30.176-16.912-61.736-30.944-93.016-45.64c-18.264-8.576-38.152-16.712-54.568-28.512c-10.256-7.368-18.568-16.656-25.84-26.896
	c-20.912-29.456-52.944-84.912-76.616-108.128c-0.392-0.384-0.8-0.76-1.2-1.136c15.216,39.808,35.712,81.08,59.144,116.688
	c-115-64.44-195.728-122.792-268.992-234.08c-4.296-7.648-9.376-14.512-14.552-21.568c5.256,15.512,11.944,30.632,19.176,45.304
	c53.624,108.856,143.544,183.176,248.68,239.08c28.288,15.032,55.968,29.488,86.36,39.896
	c-54.928-2.448-109.736-3.424-164.648-6.912c38.48,14.096,77.304,23.4,118.248,26.304c32.656,2.32,69.336,0.528,100.808,10.416
	c43.96,13.8,109.056,60.064,150.912,84.344c-72.704-16.776-157.136-11.304-224.584,22.216
	c50.576-8.304,99.592-15.704,151.144-12.192c68.384,4.664,102.984,12.088,153.112,58.968c18.507,17.163,36.032,35.272,52.576,54.328
	c1.128,14.456,0.656,29.312,0.808,43.832c-47.416-21.776-95.024-28.992-146.52-33.4c-163.76-14.024-269.272-5.2-393.376-135.872
	c-110.72-116.576-179.6-279.696-193.48-439.616C887.04,992.368,888.672,953.456,889.76,914.768z"/>
<path d="M2536.944,965.6c5.856,7.048,7.728,20.744,9.968,29.832c16.776,67.984,23.808,142.096,20.44,212.008
	c-11.576,240.032-143.768,518.88-388.368,594.824c-28.24,8.768-57.56,15.52-86.984,18.736
	c-52.936,5.776-208.24,0.632-241.928,32.776c-12.824,12.232-21.848,28.928-29.984,44.472
	c-34.248,65.464-45.96,132.528-46.056,205.64c-13.056-1.312-25.816-3.68-38.704-6.112c0.136-24.304-0.488-49.136,2.44-73.288
	c12.608-104.032,53.144-150.592,117.728-226.696c24.36-28.696,50.016-60.056,79.96-83.024
	c73.864-56.64,210.192-49.768,299.096-37.848c-52.064-22.408-141.936-29.608-197.272-23.448c-18.84,2.096-36.16,6.584-54.184,12.352
	c28.696-24.744,57.304-50.6,88.512-72.2c64.048-44.336,141.776-68.968,218.392-80.424c33.976-5.08,70.984-4.232,104.04-12.96
	l2.664-0.72c-60.256-3.896-121.2-5.536-180.944,4.192c69.704-41.016,130.68-91.328,186.688-149.36
	c45.064-50.696,83.368-112.008,101.008-178c1.84-6.888,8.96-31.2,5.912-36.432l-0.312,0.984l1.928-4.216
	c-8.088,11.328-11.28,30.152-17.168,43.416c-8.4,18.928-19.104,36.832-29.752,54.56c-35.712,59.432-81.208,109.976-134.52,154.128
	c-22.712,18.808-46.512,36.192-68.896,55.416c22.816-47.072,44.52-91.848,51.352-144.512c-8.64,7.944-20.712,48.112-27.92,61.536
	c-10.2,18.992-22.416,37.416-34.472,55.288c-12.624,18.728-25.76,37.952-42.224,53.536c-31.64,29.944-98.472,61.152-138.048,87.064
	c22.832-49.032,32.096-107.152,34.912-160.8c-21.36,56.72-36.6,146.096-77.696,191.584c-26.704,29.568-59.656,53.544-86.808,83.288
	c8.2-46.352,7.392-106.08-5.384-151.224c0.8,48.072,1.072,132.616-24.232,173.456c-12.416,20.04-32.912,36.752-49.032,53.96
	c-17.32,18.496-33.552,38.176-49.96,57.488c-10.808-103.648-11.928-198.592,36.272-295
	c80.92-161.848,213.384-178.064,365.984-229.376C2383.904,1223.16,2461.12,1118.248,2536.944,965.6z"/>
<path d="M1094.416,354.907c30.928,0.121,61.44,1.388,92.168,5.01c9.723,1.094,19.411,2.427,29.064,3.999
	c9.653,1.571,19.264,3.379,28.832,5.422c9.568,2.044,19.077,4.322,28.528,6.834c9.456,2.512,18.843,5.255,28.16,8.229
	c9.323,2.974,18.565,6.175,27.728,9.604c9.157,3.428,18.229,7.08,27.216,10.955c8.981,3.875,17.861,7.968,26.64,12.28
	c8.779,4.312,17.448,8.837,26.008,13.575c8.56,4.739,16.997,9.685,25.312,14.838c8.315,5.154,16.496,10.509,24.544,16.065
	c8.053,5.556,15.963,11.306,23.728,17.252c7.771,5.945,15.389,12.078,22.856,18.398c7.467,6.32,14.773,12.82,21.92,19.499
	c7.147,6.679,14.125,13.531,20.936,20.554c6.811,7.023,13.443,14.209,19.896,21.558c6.459,7.349,12.731,14.853,18.816,22.51
	c76.344,97.112,114.584,212.65,99.296,336.174c-5.92,47.808-20.432,92.008-59.4,122.504c-5.704-3.744-11.384-7.864-16.352-12.544
	c-16.864-15.896-29.072-37.952-38.896-58.648c-45.344-95.528-23.512-166.72-26.296-264.31l-0.088-2.502
	c-17,53.68-25.784,113.708-21.384,169.82c-17.896-33.272-37.36-64.624-58.984-95.612c-16.368-23.456-43.728-52.646-53.776-78.306
	c-10.768-27.485-18.944-137.519-22.816-173.339c-6.6,49.832-8.08,113.162,4.816,161.94
	c-29.864-43.363-71.472-84.066-111.592-118.102c-14.552-12.344-30.92-22.998-44.608-36.271l-2.496-2.454
	c-11.496-11.178-16.72-28.566-24.568-42.437c-9.264-16.364-21.312-30.87-34.936-43.75c14.832,24.254,27.488,49.964,40.264,75.341
	c-67.744-42.806-132.168-73.175-212.168-86.218l-0.072,1.954c81.896,27.114,141.856,71.878,213.792,117.434
	c-45.688-12.011-83.632-16.57-131.072-12.93c167.672,20.155,189.776,60.918,296.728,180.364
	c-58.376-31.349-132.544-36.365-197.664-32.246c76.52,15.595,166.2,19.786,225.304,78.02c14.528,14.319,25.84,31.634,36.864,48.693
	c22.376,34.632,43.328,71.136,68.984,103.416c-7.547-6.32-15.261-12.427-23.144-18.32c-69.272-51.44-164.272-77.944-250.272-65.072
	c71.448,6.512,143.992,23.928,207.16,58.72c26.272,14.472,52.768,32.768,72.896,55.224c17.008,18.984,27.32,42.952,40.4,64.624
	c13.752,22.792,29.216,44.4,42.16,67.688c29.808,53.624,51.768,113.888,68.944,172.64c4.776-76.84,29.056-197.728,84.296-252.752
	c-2.512-14.336-4.176-28.192-4.84-42.736c-2.576-101.816,41.072-194.913,102.544-273.795
	c116.496-149.504,304.616-233.47,488.592-260.822c51.84-7.706,103.944-6.102,155.272-12.825l2.728-0.37l-3.472,3.684
	c-115.024,122.301-123.696,250.308-119.32,407.624c2.392,85.936-4.848,150.024-66.728,214.976
	c-81.36,85.392-190.16,102.68-300.952,119.088c-42.688,6.32-85.696,13.584-128.896,14.816
	c-67.208,73.088-145.904,213.84-164.232,311.568c-9.392,50.064,0.016,139.848,0.928,193.808
	c2.624,140.261,3.784,280.536,3.48,420.824l-53.552,0.12c-7.776-157.784-16.104-316.6-17.856-474.552
	c-0.616-55.168,0.696-110.408,1.232-165.584c0.36-36.992,2.56-76.432-3.512-113.04c-4.571-26.043-10.253-51.84-17.048-77.392
	c-6.8-25.552-14.685-50.765-23.656-75.64c-8.976-24.869-19.003-49.307-30.08-73.312c-11.083-24.005-23.179-47.491-36.288-70.456
	c-61.72,13.008-190.08-23.36-250.712-42.088c-119.952-37.064-208.28-92.944-242.608-219.22
	c-13.664-50.254-20.128-102.573-31.152-153.478c-9.208-42.495-20.384-87.715-41-126.155
	c-25.344-47.266-71.688-86.247-123.088-101.961c25.904-7.733,51.176-17.478,77.232-24.849
	C984.704,363.301,1038.904,357.058,1094.416,354.907z"/>
<path style="fill:#FEFEFE;" d="M2363.272,488.218l1.44,0.731c-15.752,18.429-41.24,32.842-59.728,49.205
	c-35.12,31.093-67.304,64.79-99.632,98.715c31.12-13.318,61.544-20.184,95.352-22.317c-37.6,15.858-82.424,28.966-116.672,51.246
	C2143.72,692.022,2072.704,794.898,2035.6,836.6c64.456-34.408,112.344-45.202,185.104-41.771
	c-20.288,3.57-40.469,7.654-60.544,12.251c-43.904,10.464-114.112,40-146.68,72.16c-33.064,32.672-90.456,142.184-118.816,187.8
	c90.312-71.68,194.648-114.304,311.728-103.728c-1.701,0.192-3.4,0.392-5.096,0.6c-172.696,21.672-295.76,105.744-400.616,241.28
	c-33.896,43.04-66.472,92.496-88.032,142.872c-0.032-66.848,5.6-134.328,22.256-199.208c9.176-35.736,23.904-72.104,29.072-108.528
	c12.731,38.288,28.08,75.496,46.048,111.624c13.36-19.768,30.832-36.376,42.84-57.192c8.624-14.952,14.856-32.008,21.632-47.872
	c7.016-16.44,15.784-33.656,19.632-51.176c12.144-55.328-7.848-125.312-21.856-178.848c26.784,45.464,43.656,100.816,41.12,153.744
	c23.264-45.8,54.744-88.528,83.68-130.872c1.264-23.896,10.272-159.408,15.192-169.754l1.408,0.77
	c2.776,48.462,6.616,95.198,1.344,143.72c21.24-33.226,47.08-64.146,72.736-94.017c14.304-16.657,30.072-32.996,42.416-51.134
	c19.712-28.97,27.824-69.542,50.312-103.77c-7.808,23.886-12.672,46.391-15.728,71.372
	C2223.224,575.692,2288.024,526.864,2363.272,488.218z"/>
<path d="M310.494,2056.712c38.582-2.496,73.718,0.952,106.582,23.048c32.119,21.6,55.718,55.696,79.626,85.512
	c32.816,40.936,65.038,83.848,99.902,122.984c16.942,19.024,35.986,36.232,54.2,54.024l78.449,77.72
	c56.461,56.352,113.793,111.803,171.996,166.352c10.896,10.168,20.32,21.928,31.416,31.784c3.904,3.472,8.688,7.6,13.856,9.032
	c4.48,1.232,8.008,1.04,11.88-1.672c4.04-2.832,7.336-8.472,7.664-13.32c1.04-15.616-43.728-52.864-56.04-65.16
	c-49.845-50.224-100.134-100-150.867-149.328c-43.868-41.832-90.388-82.488-131.305-127.192
	c-19.382-21.176-36.588-44.768-54.291-67.36c-34.37-43.856-68.618-87.728-106.898-128.288
	c47.746-14.552,89.695-16.232,134.914,7.664c43.977,23.232,84.766,85.408,120.018,122.928
	c80.174,85.328,162.638,169.816,245.638,252.424c23.888,23.776,45.576,51.648,70.648,73.888c5.16,4.584,12.84,10.584,20.2,10.384
	c5.048-0.136,9.112-2.504,12.064-6.536c2.104-2.888,2.288-6.416,2.032-9.824c-1.328-17.592-72.168-85.48-88.056-99.84
	c5.093-4.555,10.379-8.872,15.856-12.952c98.08-72.544,225.008-113.472,346.968-95.12c23.032-27.92,52.104-52.872,79.56-76.36
	c84.76-72.504,184.728-121.912,298.376-112.568c138.664,11.392,279.184,90.6,368.488,195.744
	c98.648-26.768,196.552-16.552,290.32,22.232c-65.512,14.904-153.52,68.232-210.712,103.792
	c-27.92,17.368-55.144,36.68-84.856,50.864c-61.8,29.504-143.128,45.296-210.88,55.384c-118.576,17.64-234.008,20.024-353.08,5.296
	c-51.712-6.392-101.76-19.288-153.072-27.176c-65.696-10.104-144.264-10.984-209.992-0.432
	c-74.152,11.904-155.288,46.424-200.144,109.288c-25.632,35.928-34.12,81.136-26.736,124.448c0.731,4.485,1.68,8.923,2.848,13.312
	c1.168,4.389,2.552,8.712,4.152,12.968c1.595,4.256,3.397,8.419,5.408,12.488c2.011,4.075,4.219,8.04,6.624,11.896
	c2.405,3.856,4.995,7.584,7.768,11.184c2.773,3.6,5.717,7.053,8.832,10.36s6.387,6.45,9.816,9.432
	c3.429,2.981,6.997,5.787,10.704,8.416c10.8,7.568,25.232,15.344,38.144,18.064c38.432,8.096,81.152,4.176,120.368,4.304
	c51.28,0.16,103.52,2.912,154.104,11.744c56.48,10.16,111.925,24.354,166.336,42.584c65.576,22.168,135.8,54.984,204.936,61.496
	c57.008,5.368,118.848-6.24,175.568-12.72c39.256-4.488,78.944-7.28,117.92-13.808c-117.048,52.688-273.928,144.368-397.48,165.152
	c-154.64,26.016-412.296-152.336-546.064-227.928c-32.427-18.405-65.051-36.454-97.872-54.144
	c-28.232-15.296-60.856-29.616-84.976-50.888c-27.384-24.16-140.497-176.176-154.67-183.368c-5.826-2.952-14.488-1.424-19.947,1.4
	c-2.397,3.616-3.307,4.696-3.141,9.224c0.358,9.744,7.382,20.304,12.839,28.088c15.806,22.56,36.056,42.848,53.43,64.336
	c27.171,33.608,53.278,72.208,83.889,102.496c28.168,27.872,69.824,44.584,104.32,63.512c31.531,17.499,62.936,35.221,94.216,53.168
	c87.096,49.888,172.056,104.096,261.384,149.992c39.163,20.235,79.421,37.981,120.776,53.24
	c50.592,18.624,99.528,27.864,153.488,27.44c110.32-8.536,275.32-94.336,376.48-144.024c47.808-23.48,101.168-51.976,153.56-63.048
	c49.088-10.376,212.088,27.296,239.032,11.304c1.536-2.992,2.568-5.248,2.56-8.72c-0.024-5.32-2.352-9.648-6.488-12.872
	c-15.296-11.888-48.64-11.56-67.872-13.72c-51.704-5.792-104.624-11.648-156.704-11.768c-90.28-0.208-180.616,13.528-270.048,24.392
	c-45.664,5.552-95.016,14.472-140.944,10.496c-57.04-4.936-112.472-31.376-166.08-50.208
	c-62.328-21.904-125.016-41.528-190.048-53.632c-56.512-10.512-115.016-14.632-172.44-15.272
	c-36.296-0.408-73.808,3.84-109.648-3.376c-13.08-2.64-25.04-9.072-35.32-17.456c-21.4-17.448-34.072-42.504-36.848-69.872
	c-0.475-4.522-0.723-9.059-0.744-13.608c-0.021-4.549,0.184-9.088,0.616-13.616c0.427-4.528,1.077-9.024,1.952-13.488
	c0.88-4.464,1.976-8.875,3.288-13.232c1.317-4.352,2.848-8.629,4.592-12.832c1.739-4.203,3.683-8.309,5.832-12.32
	c2.149-4.011,4.493-7.904,7.032-11.68c2.533-3.776,5.251-7.416,8.152-10.92c8.997-10.805,19.176-20.355,30.536-28.648
	c90.432-67.36,224.008-68.912,331.456-54.328c40.968,5.56,81.296,15.608,122.168,21.928c53.328,8.248,108.272,13.032,162.152,15.224
	c125.792,5.112,330.224-19.768,445.808-69.072c55.28-23.584,105.048-64.256,157.648-93.728
	c170.464-95.512,359.352-140.4,554.464-116.856c93,11.224,187.296,39.84,267.864,88.016
	c117.728,70.4,162.432,152.88,310.208,184.536c34.76,7.448,75.456,12.536,111.088,8.928l2.832-0.304
	c-43.456,43.584-81.264,95.592-117.776,144.952c-100.504,135.872-189.4,276.192-266.352,426.816
	c-17.112,33.488-36.552,67.568-49.488,102.912c-45.168-21.608-92.776-45.552-143.44-49.312
	c-51.56-3.824-107.704,8.536-158.064,19.144c-274.72,57.856-527.536,181.992-781.104,298.32
	c-29.584,13.576-59.384,26.904-88.664,41.128c-44.584,21.648-84.544,45.88-134.824,52.184c-48.784,6.12-100.264-0.136-144.944-21.16
	c-41.552-19.552-75.104-51.2-112.128-77.696c-33.496-23.976-69.776-45.072-104.56-67.184l-435.056-278.496l-144.016-91.392
	c-31.026-19.608-63.639-38.384-92.553-60.976c-18.089-14.128-32.387-29.232-45.932-47.72c-33.11-45.2-62.762-93.768-93.259-140.808
	L446.828,2653.68l-173.216-262.24c-27.102-40.64-63.923-88.608-87.956-129.512c-9.162-15.592-15.55-31.768-17.625-49.832
	c-3.999-34.792,8.673-68.992,30.384-95.896C226.822,2081.008,266.012,2061.52,310.494,2056.712z"/>
</svg>
