<?xml version="1.0" encoding="utf-8"?>
<!-- Generator: Adobe Illustrator 27.5.0, SVG Export Plug-In . SVG Version: 6.00 Build 0)  -->
<svg version="1.1" xmlns="http://www.w3.org/2000/svg" xmlns:xlink="http://www.w3.org/1999/xlink" x="0px" y="0px"
	 viewBox="0 0 1122 1122" style="enable-background:new 0 0 1122 1122;" xml:space="preserve">
<g id="BG">
	<g>
		<rect style="fill:#E5F5F9;" width="1122" height="1122"/>
		<circle style="opacity:0.37;fill:#FFFFFF;" cx="561" cy="561" r="454.546"/>
	</g>
</g>
<g id="Objects">
	<g>
		<g>
			<rect x="535.244" y="903.329" style="fill:#FFFFFF;" width="51.512" height="11.887"/>
			<g>
				<path style="fill:#334C60;" d="M784.015,943.765H337.985c-9.61,0-17.4-7.79-17.4-17.4V195.632c0-9.61,7.79-17.4,17.4-17.4
					h446.031c9.61,0,17.4,7.79,17.4,17.4v730.733C801.415,935.975,793.625,943.765,784.015,943.765z"/>
				<rect x="345.408" y="218.848" style="fill:#FFFFFF;" width="430.193" height="653.773"/>
				<g>
					<g>
						<path style="fill:#94AEBF;" d="M644.519,547.115c5.142,0,5.142-7.974,0-7.974c-63.785,0-127.571,0-191.356,0
							c-5.142,0-5.142,7.974,0,7.974l0,0H644.519z"/>
					</g>
				</g>
				<g>
					<path style="fill:#CDDBA6;" d="M546.792,258.789c-39.027,0-73.957,17.284-97.635,44.593l97.635,84.601l97.635-84.601
						C620.748,276.073,585.818,258.789,546.792,258.789z"/>
					<path style="fill:#A36652;" d="M683.972,369.051l-127.873,18.385V516.63c71.41,0,129.194-57.784,129.194-129.194
						C685.293,381.191,684.826,375.058,683.972,369.051z"/>
					<path style="fill:#B3D1E2;" d="M449.294,303.81c-46.025,54.599-39.087,136.024,15.513,182.049
						c4.775,4.026,9.766,7.621,14.91,10.839l68.359-109.62L449.294,303.81z"/>
					<path style="fill:#679BC6;" d="M547.898,516.446c-24.209,0.005-48.5-6.753-69.842-20.517l69.855-108.673L547.898,516.446z"/>
					<path style="fill:#F4D242;" d="M690.541,361.934c-3.576-25.142-14.378-47.925-30.237-66.216l-97.635,84.601L690.541,361.934z"
						/>
				</g>
				<g>
					<g>
						<rect x="407.423" y="718.984" style="fill:#6A8678;" width="39.566" height="123.194"/>
						<rect x="407.423" y="671.281" style="fill:#CDDBA6;" width="39.566" height="57.892"/>
					</g>
					<g>
						<rect x="667.896" y="724.542" style="fill:#6A8678;" width="39.566" height="123.194"/>
						<rect x="667.896" y="620.568" style="fill:#CDDBA6;" width="39.566" height="114.163"/>
					</g>
					<g>
						<rect x="581.072" y="714.816" style="fill:#6A8678;" width="39.566" height="130.141"/>
						<rect x="581.072" y="703.238" style="fill:#CDDBA6;" width="39.566" height="86.375"/>
					</g>
					<g>
						<rect x="494.247" y="669.487" style="fill:#6A8678;" width="39.566" height="174.775"/>
						<rect x="494.247" y="601.811" style="fill:#CDDBA6;" width="39.566" height="139.792"/>
					</g>
				</g>
				<path style="opacity:0.05;fill:#2E4661;" d="M344.851,275.74c4.894,4.63,430.75,596.88,430.75,596.88H345.408L344.851,275.74z"
					/>
			</g>
		</g>
		<path style="fill:#F4F4F4;" d="M571.66,918.446h-38.294c-4.16,0-7.532-2.459-7.532-5.492v-3.838c0-3.033,3.372-5.492,7.532-5.492
			h38.294c4.16,0,7.531,2.459,7.531,5.492v3.838C579.191,915.987,575.819,918.446,571.66,918.446z"/>
	</g>
</g>
</svg>
